<svg xmlns="http://www.w3.org/2000/svg" viewBox="0 0 309.83 221.67"><defs><style>.cls-1{fill:#14191f;}</style></defs><title>comments</title><g id="Слой_2" data-name="Слой 2"><g id="Слой_1-2" data-name="Слой 1"><path class="cls-1" d="M291.47,0H18.36A18.36,18.36,0,0,0,0,18.36V159a18.36,18.36,0,0,0,18.36,18.36H257.89a18.36,18.36,0,0,1,13,5.38l39,39V18.36A18.36,18.36,0,0,0,291.47,0Zm3.36,76V185.45l-13.35-13.35a33.14,33.14,0,0,0-23.59-9.77H18.36A3.37,3.37,0,0,1,15,159V18.36A3.37,3.37,0,0,1,18.36,15H291.47a3.37,3.37,0,0,1,3.36,3.36Z"/><path class="cls-1" d="M257.42,32.33h-205a10.75,10.75,0,0,0,0,21.5h205a10.75,10.75,0,0,0,0-21.5Z"/><path class="cls-1" d="M257.42,76.33h-205a10.75,10.75,0,0,0,0,21.5h205a10.75,10.75,0,0,0,0-21.5Z"/><path class="cls-1" d="M257.42,120.33h-205a10.75,10.75,0,0,0,0,21.5h205a10.75,10.75,0,1,0,0-21.5Z"/></g></g></svg>