<svg xmlns="http://www.w3.org/2000/svg" viewBox="0 0 128 128"><defs><style>.cls-1{fill:#14191f;}.cls-2{fill:#5f7ea6;}</style></defs><title>Ресурс 7</title><g id="Слой_2" data-name="Слой 2"><g id="Слой_1-2" data-name="Слой 1"><rect class="cls-1" width="128" height="128"/><path class="cls-2" d="M63.94,114.24A47.16,47.16,0,1,1,111.1,67.07,47.22,47.22,0,0,1,63.94,114.24Z"/><path class="cls-1" d="M63.94,29.91A37.16,37.16,0,1,1,26.78,67.07,37.16,37.16,0,0,1,63.94,29.91m0-20A57.16,57.16,0,1,0,121.1,67.07,57.23,57.23,0,0,0,63.94,9.91Z"/><path class="cls-2" d="M75.56,36.33c9.69-8,23.88-11.32,30.77-12.53a3,3,0,0,1,3.42,3.43c-1.25,6.91-4.65,21.21-12.5,30.78a3,3,0,0,1-4.36.2L75.37,40.7A3,3,0,0,1,75.56,36.33Z"/><path class="cls-2" d="M52.5,36.33c-9.69-8-23.88-11.32-30.77-12.53a3,3,0,0,0-3.42,3.43C19.55,34.15,22.95,48.45,30.8,58a3,3,0,0,0,4.36.2L52.69,40.7A3,3,0,0,0,52.5,36.33Z"/><path class="cls-1" d="M80.09,51.07a3.55,3.55,0,0,0-3.55,3.55V66.2a3.55,3.55,0,0,0,7.1,0V54.62A3.55,3.55,0,0,0,80.09,51.07Z"/><path class="cls-1" d="M47.88,51.07a3.55,3.55,0,0,0-3.55,3.55V66.2a3.55,3.55,0,0,0,7.1,0V54.62A3.55,3.55,0,0,0,47.88,51.07Z"/><path class="cls-1" d="M52.27,77.4a11.67,11.67,0,1,0,23.35,0Z"/></g></g></svg>