<svg xmlns="http://www.w3.org/2000/svg" viewBox="0 0 287.26 61.01"><title>logo_text</title><g id="Слой_2" data-name="Слой 2"><g id="Слой_1-2" data-name="Слой 1"><path d="M22.25,0Q32,0,37.95,5.47A19.63,19.63,0,0,1,44.5,20.72a19.53,19.53,0,0,1-6.55,15.16Q32,41.36,22.25,41.36T6.55,35.89A19.52,19.52,0,0,1,0,20.72,19.62,19.62,0,0,1,6.55,5.47Q12.47,0,22.25,0ZM14.44,28.44a10.44,10.44,0,0,0,7.81,3.23,10.45,10.45,0,0,0,7.8-3.23,10.68,10.68,0,0,0,3.14-7.71,10.79,10.79,0,0,0-3.14-7.81,10.45,10.45,0,0,0-7.8-3.23,10.44,10.44,0,0,0-7.81,3.23,10.79,10.79,0,0,0-3.14,7.81A10.68,10.68,0,0,0,14.44,28.44Z"/><path d="M49.86,37.87,65.63,19.8a1.35,1.35,0,0,0,0-1.75L53.36,3.47a1.35,1.35,0,0,1,1-2.21H64.66a1.35,1.35,0,0,1,1.06.51L72.16,10a1.35,1.35,0,0,0,2.11,0l6.61-8.22a1.35,1.35,0,0,1,1-.5H92.17a1.35,1.35,0,0,1,1,2.22L80.69,18a1.35,1.35,0,0,0,0,1.76L96.39,37.87a1.35,1.35,0,0,1-1,2.23H85a1.35,1.35,0,0,1-1-.49l-9.69-11.8a1.35,1.35,0,0,0-2.07,0L62.31,39.62a1.35,1.35,0,0,1-1,.48H50.87A1.35,1.35,0,0,1,49.86,37.87Z"/><path d="M104,58.93l12.86-24a1.35,1.35,0,0,0,0-1.29l-17-30.37a1.35,1.35,0,0,1,1.18-2h9.64a1.35,1.35,0,0,1,1.18.7L122.2,21a1.35,1.35,0,0,0,2.39-.05l9.25-19a1.35,1.35,0,0,1,1.21-.76h9.31a1.35,1.35,0,0,1,1.19,2l-29.9,57a1.35,1.35,0,0,1-1.19.72h-9.32A1.35,1.35,0,0,1,104,58.93Z"/><path d="M181.58,2.6h0a1.35,1.35,0,0,1,1.35-1.35h8.25a1.35,1.35,0,0,1,1.35,1.35V38.67q0,3.41-.13,5.2a21.18,21.18,0,0,1-1.17,4.84,16.54,16.54,0,0,1-3.09,5.47q-6,6.82-16.24,6.82a22.69,22.69,0,0,1-14.13-4.4,16.92,16.92,0,0,1-6.49-10.29,1.36,1.36,0,0,1,1.32-1.64h9.18a1.33,1.33,0,0,1,1.28.94,7.86,7.86,0,0,0,2.83,4.22,9.81,9.81,0,0,0,6.1,1.84,10,10,0,0,0,4.62-1,7.43,7.43,0,0,0,4.31-5.2,17.66,17.66,0,0,0,.58-2.74q.09-.94.09-2V38.64a1.34,1.34,0,0,0-2.27-1,13.37,13.37,0,0,1-9.66,3.69,18.28,18.28,0,0,1-14.17-6A21.05,21.05,0,0,1,150,20.63a21.4,21.4,0,0,1,5.29-14.58Q160.59,0,169.38,0a14,14,0,0,1,9.95,3.59A1.34,1.34,0,0,0,181.58,2.6Zm-1.79,10.23a11,11,0,0,0-15.43,0,10.76,10.76,0,0,0-3.05,7.81,10.91,10.91,0,0,0,3.05,7.85,10.94,10.94,0,0,0,15.43,0,10.92,10.92,0,0,0,3-7.85A10.77,10.77,0,0,0,179.79,12.83Z"/><path d="M231.92,27.78,239.31,29a1.35,1.35,0,0,1,1,2q-.4.75-.88,1.48a30.21,30.21,0,0,1-3.18,3.86A15.27,15.27,0,0,1,230.38,40,23.76,23.76,0,0,1,222,41.36q-9.15,0-14.89-5.47Q201,30.15,201,20.72t5.92-15.25Q212.44,0,221.5,0q9.87,0,15.16,6.37,4.66,5.56,4.67,15.25v.9H213.68A1.36,1.36,0,0,0,212.33,24a10.17,10.17,0,0,0,1.81,5.07A9.07,9.07,0,0,0,222,32.75a9.73,9.73,0,0,0,8.62-4.41A1.36,1.36,0,0,1,231.92,27.78ZM214.36,15.52h14.93a1.36,1.36,0,0,0,1.27-1.81,8.25,8.25,0,0,0-2.82-4,9.59,9.59,0,0,0-6-2,9.33,9.33,0,0,0-5.88,2.06,8.46,8.46,0,0,0-2.81,3.92A1.36,1.36,0,0,0,214.36,15.52Z"/><path d="M249.76,38.76V2.6a1.35,1.35,0,0,1,1.35-1.35h8.25a1.35,1.35,0,0,1,1.35,1.35v.11a1.34,1.34,0,0,0,2.24,1A13.84,13.84,0,0,1,272.73,0q7.62,0,11.48,4.75,3,3.77,3,10.95V38.76a1.35,1.35,0,0,1-1.35,1.35h-8.25a1.35,1.35,0,0,1-1.35-1.35V18.93q0-5.47-2.06-7.62a6.74,6.74,0,0,0-5.11-2,7.52,7.52,0,0,0-6.73,3.41,14.06,14.06,0,0,0-1.71,7.54V38.76a1.35,1.35,0,0,1-1.35,1.35h-8.25A1.35,1.35,0,0,1,249.76,38.76Z"/></g></g></svg>