<svg xmlns="http://www.w3.org/2000/svg" viewBox="0 0 377.43 96.21"><defs><style>.cls-1{fill:#fff;}</style></defs><title>logo_full_2</title><g id="Слой_2" data-name="Слой 2"><g id="Слой_1-2" data-name="Слой 1"><path d="M112.42,33.61q9.78,0,15.7,5.47a19.63,19.63,0,0,1,6.55,15.25,19.53,19.53,0,0,1-6.55,15.16Q122.2,75,112.42,75T96.72,69.5a19.52,19.52,0,0,1-6.55-15.16,19.62,19.62,0,0,1,6.55-15.25Q102.64,33.61,112.42,33.61Zm-7.81,28.44a11,11,0,0,0,15.61,0,10.68,10.68,0,0,0,3.14-7.71,10.79,10.79,0,0,0-3.14-7.81,11,11,0,0,0-15.61,0,10.79,10.79,0,0,0-3.14,7.81A10.68,10.68,0,0,0,104.62,62.05Z"/><path d="M140,71.48,155.8,53.41a1.35,1.35,0,0,0,0-1.75L143.53,37.08a1.35,1.35,0,0,1,1-2.21h10.26a1.35,1.35,0,0,1,1.06.51l6.44,8.2a1.35,1.35,0,0,0,2.11,0L171,35.37a1.35,1.35,0,0,1,1-.5h10.24a1.35,1.35,0,0,1,1,2.22l-12.5,14.57a1.35,1.35,0,0,0,0,1.76l15.69,18.07a1.35,1.35,0,0,1-1,2.23h-10.4a1.35,1.35,0,0,1-1-.49l-9.69-11.8a1.35,1.35,0,0,0-2.07,0l-9.86,11.81a1.35,1.35,0,0,1-1,.48H141A1.35,1.35,0,0,1,140,71.48Z"/><path d="M194.14,92.55l12.86-24a1.35,1.35,0,0,0,0-1.29L190,36.87a1.35,1.35,0,0,1,1.18-2h9.64a1.35,1.35,0,0,1,1.18.7l10.39,19.08a1.35,1.35,0,0,0,2.39-.05l9.25-19a1.35,1.35,0,0,1,1.21-.76h9.31a1.35,1.35,0,0,1,1.19,2l-29.9,57a1.35,1.35,0,0,1-1.19.72h-9.32A1.35,1.35,0,0,1,194.14,92.55Z"/><path d="M271.75,36.21h0a1.35,1.35,0,0,1,1.35-1.35h8.25a1.35,1.35,0,0,1,1.35,1.35V72.28q0,3.41-.13,5.2a21.18,21.18,0,0,1-1.17,4.84,16.54,16.54,0,0,1-3.09,5.47q-6,6.82-16.24,6.82a22.69,22.69,0,0,1-14.13-4.4,16.92,16.92,0,0,1-6.49-10.29,1.36,1.36,0,0,1,1.32-1.64h9.18a1.33,1.33,0,0,1,1.28.94,7.86,7.86,0,0,0,2.83,4.22,9.81,9.81,0,0,0,6.1,1.84,10,10,0,0,0,4.62-1,7.43,7.43,0,0,0,4.31-5.2,17.66,17.66,0,0,0,.58-2.74q.09-.94.09-2V72.25a1.34,1.34,0,0,0-2.27-1A13.37,13.37,0,0,1,259.82,75a18.28,18.28,0,0,1-14.17-6,21.05,21.05,0,0,1-5.47-14.71,21.4,21.4,0,0,1,5.29-14.58q5.29-6.06,14.08-6.06a14,14,0,0,1,9.95,3.59A1.34,1.34,0,0,0,271.75,36.21ZM270,46.44a11,11,0,0,0-15.43,0,10.76,10.76,0,0,0-3.05,7.81,10.91,10.91,0,0,0,3.05,7.85,10.94,10.94,0,0,0,15.43,0,10.92,10.92,0,0,0,3-7.85A10.77,10.77,0,0,0,270,46.44Z"/><path d="M322.09,61.39l7.39,1.19a1.35,1.35,0,0,1,1,2q-.4.75-.88,1.48a30.21,30.21,0,0,1-3.18,3.86,15.27,15.27,0,0,1-5.83,3.68A23.76,23.76,0,0,1,312.12,75Q303,75,297.23,69.5q-6.1-5.74-6.1-15.16t5.92-15.25q5.56-5.47,14.62-5.47,9.87,0,15.16,6.37,4.66,5.56,4.67,15.25v.9H303.85a1.36,1.36,0,0,0-1.35,1.48,10.17,10.17,0,0,0,1.81,5.07,9.07,9.07,0,0,0,7.81,3.68,9.73,9.73,0,0,0,8.62-4.41A1.36,1.36,0,0,1,322.09,61.39ZM304.53,49.13h14.93a1.36,1.36,0,0,0,1.27-1.81,8.25,8.25,0,0,0-2.82-4,9.59,9.59,0,0,0-6-2,9.33,9.33,0,0,0-5.88,2.06,8.46,8.46,0,0,0-2.81,3.92A1.36,1.36,0,0,0,304.53,49.13Z"/><path d="M339.93,72.37V36.21a1.35,1.35,0,0,1,1.35-1.35h8.25a1.35,1.35,0,0,1,1.35,1.35v.11a1.34,1.34,0,0,0,2.24,1,13.84,13.84,0,0,1,9.78-3.71q7.62,0,11.48,4.75,3,3.77,3,10.95V72.37a1.35,1.35,0,0,1-1.35,1.35h-8.25a1.35,1.35,0,0,1-1.35-1.35V52.54q0-5.47-2.06-7.62a6.74,6.74,0,0,0-5.11-2,7.52,7.52,0,0,0-6.73,3.41,14.06,14.06,0,0,0-1.71,7.54V72.37a1.35,1.35,0,0,1-1.35,1.35h-8.25A1.35,1.35,0,0,1,339.93,72.37Z"/><path d="M41.06,25.34a25.33,25.33,0,0,0,41,19.89l0-19.41a4,4,0,0,0-2-3.47L50.77,5.4A25.29,25.29,0,0,0,41.06,25.34Z"/><circle class="cls-1" cx="66.4" cy="25.34" r="25.34"/><path d="M19.62,68.11A14,14,0,0,0,7.3,75.42l24.32,14a14,14,0,0,0-12-21.34Z"/><path d="M66.4,52.68A27.33,27.33,0,0,1,48.92,4.34L43.07,1a4,4,0,0,0-4,0L2,22.35a4,4,0,0,0-2,3.46V68.9a4,4,0,0,0,2,3.46l3.57,2.06a16,16,0,1,1,27.77,16l5.71,3.3a4,4,0,0,0,4,0l37-21.64a4,4,0,0,0,2-3.44l0-20.94A27.18,27.18,0,0,1,66.4,52.68Z"/><circle class="cls-1" cx="19.62" cy="82.16" r="14.05"/></g></g></svg>