<svg xmlns="http://www.w3.org/2000/svg" viewBox="0 0 377.43 100.21">
    <defs>
        <style>
            .cls-1 {
                fill: #F5FFFF;
            }
            .cls-2 {
                fill: #111215;
            }
        </style>
    </defs>
    <title>logo_full</title>
    <g id="Слой_2" data-name="Слой 2">
        <g id="Слой_1-2" data-name="Слой 1">
            <path d="M0,27.82V70.9a4,4,0,0,0,2,3.46L39.05,95.75a4,4,0,0,0,4,0l37-21.64a4,4,0,0,0,2-3.44l.08-42.83a4,4,0,0,0-2-3.47L43.07,3a4,4,0,0,0-4,0L2,24.35A4,4,0,0,0,0,27.82Z" />
            <path d="M112.42,35.61q9.78,0,15.7,5.47a19.63,19.63,0,0,1,6.55,15.25,19.53,19.53,0,0,1-6.55,15.16Q122.2,77,112.42,77T96.72,71.5a19.52,19.52,0,0,1-6.55-15.16,19.62,19.62,0,0,1,6.55-15.25Q102.64,35.61,112.42,35.61Zm-7.81,28.44a11,11,0,0,0,15.61,0,10.68,10.68,0,0,0,3.14-7.71,10.79,10.79,0,0,0-3.14-7.81,11,11,0,0,0-15.61,0,10.79,10.79,0,0,0-3.14,7.81A10.68,10.68,0,0,0,104.62,64.05Z" />
            <path d="M140,73.48,155.8,55.41a1.35,1.35,0,0,0,0-1.75L143.53,39.08a1.35,1.35,0,0,1,1-2.21h10.26a1.35,1.35,0,0,1,1.06.51l6.44,8.2a1.35,1.35,0,0,0,2.11,0L171,37.37a1.35,1.35,0,0,1,1-.5h10.24a1.35,1.35,0,0,1,1,2.22l-12.5,14.57a1.35,1.35,0,0,0,0,1.76l15.69,18.07a1.35,1.35,0,0,1-1,2.23h-10.4a1.35,1.35,0,0,1-1-.49l-9.69-11.8a1.35,1.35,0,0,0-2.07,0l-9.86,11.81a1.35,1.35,0,0,1-1,.48H141A1.35,1.35,0,0,1,140,73.48Z" />
            <path d="M194.14,94.55l12.86-24a1.35,1.35,0,0,0,0-1.29L190,38.87a1.35,1.35,0,0,1,1.18-2h9.64a1.35,1.35,0,0,1,1.18.7l10.39,19.08a1.35,1.35,0,0,0,2.39-.05l9.25-19a1.35,1.35,0,0,1,1.21-.76h9.31a1.35,1.35,0,0,1,1.19,2l-29.9,57a1.35,1.35,0,0,1-1.19.72h-9.32A1.35,1.35,0,0,1,194.14,94.55Z" />
            <path d="M271.75,38.21h0a1.35,1.35,0,0,1,1.35-1.35h8.25a1.35,1.35,0,0,1,1.35,1.35V74.28q0,3.41-.13,5.2a21.18,21.18,0,0,1-1.17,4.84,16.54,16.54,0,0,1-3.09,5.47q-6,6.82-16.24,6.82a22.69,22.69,0,0,1-14.13-4.4,16.92,16.92,0,0,1-6.49-10.29,1.36,1.36,0,0,1,1.32-1.64h9.18a1.33,1.33,0,0,1,1.28.94,7.86,7.86,0,0,0,2.83,4.22,9.81,9.81,0,0,0,6.1,1.84,10,10,0,0,0,4.62-1,7.43,7.43,0,0,0,4.31-5.2,17.66,17.66,0,0,0,.58-2.74q.09-.94.09-2V74.25a1.34,1.34,0,0,0-2.27-1A13.37,13.37,0,0,1,259.82,77a18.28,18.28,0,0,1-14.17-6,21.05,21.05,0,0,1-5.47-14.71,21.4,21.4,0,0,1,5.29-14.58q5.29-6.06,14.08-6.06a14,14,0,0,1,9.95,3.59A1.34,1.34,0,0,0,271.75,38.21ZM270,48.44a11,11,0,0,0-15.43,0,10.76,10.76,0,0,0-3.05,7.81,10.91,10.91,0,0,0,3.05,7.85,10.94,10.94,0,0,0,15.43,0,10.92,10.92,0,0,0,3-7.85A10.77,10.77,0,0,0,270,48.44Z" />
            <path d="M322.09,63.39l7.39,1.19a1.35,1.35,0,0,1,1,2q-.4.75-.88,1.48a30.21,30.21,0,0,1-3.18,3.86,15.27,15.27,0,0,1-5.83,3.68A23.76,23.76,0,0,1,312.12,77Q303,77,297.23,71.5q-6.1-5.74-6.1-15.16t5.92-15.25q5.56-5.47,14.62-5.47,9.87,0,15.16,6.37,4.66,5.56,4.67,15.25v.9H303.85a1.36,1.36,0,0,0-1.35,1.48,10.17,10.17,0,0,0,1.81,5.07,9.07,9.07,0,0,0,7.81,3.68,9.73,9.73,0,0,0,8.62-4.41A1.36,1.36,0,0,1,322.09,63.39ZM304.53,51.13h14.93a1.36,1.36,0,0,0,1.27-1.81,8.25,8.25,0,0,0-2.82-4,9.59,9.59,0,0,0-6-2,9.33,9.33,0,0,0-5.88,2.06,8.46,8.46,0,0,0-2.81,3.92A1.36,1.36,0,0,0,304.53,51.13Z" />
            <path d="M339.93,74.37V38.21a1.35,1.35,0,0,1,1.35-1.35h8.25a1.35,1.35,0,0,1,1.35,1.35v.11a1.34,1.34,0,0,0,2.24,1,13.84,13.84,0,0,1,9.78-3.71q7.62,0,11.48,4.75,3,3.77,3,10.95V74.37a1.35,1.35,0,0,1-1.35,1.35h-8.25a1.35,1.35,0,0,1-1.35-1.35V54.54q0-5.47-2.06-7.62a6.74,6.74,0,0,0-5.11-2,7.52,7.52,0,0,0-6.73,3.41,14.06,14.06,0,0,0-1.71,7.54V74.37a1.35,1.35,0,0,1-1.35,1.35h-8.25A1.35,1.35,0,0,1,339.93,74.37Z" />
            <path class="cls-1" d="M66.4,53.68A26.34,26.34,0,1,1,92.74,27.34,26.37,26.37,0,0,1,66.4,53.68Z" />
            <path d="M66.4,2A25.34,25.34,0,1,1,41.06,27.34,25.34,25.34,0,0,1,66.4,2m0-2A27.34,27.34,0,1,0,93.74,27.34,27.37,27.37,0,0,0,66.4,0Z" />
            <path class="cls-1" d="M19.62,99.21a15,15,0,1,1,15-15A15.07,15.07,0,0,1,19.62,99.21Z" />
            <path d="M19.62,70.11a14,14,0,1,1-14,14,14,14,0,0,1,14-14m0-2a16,16,0,1,0,16,16,16.07,16.07,0,0,0-16-16Z" />
        </g>
    </g>
</svg>