<svg xmlns="http://www.w3.org/2000/svg" viewBox="0 0 377.43 96.21"><title>logo_full_mono</title><g id="Слой_2" data-name="Слой 2"><g id="Слой_1-2" data-name="Слой 1"><path d="M128.12,39.08q-5.92-5.47-15.7-5.47t-15.7,5.47a19.62,19.62,0,0,0-6.55,15.25A19.52,19.52,0,0,0,96.72,69.5Q102.64,75,112.42,75t15.7-5.47a19.53,19.53,0,0,0,6.55-15.16A19.63,19.63,0,0,0,128.12,39.08Zm-7.89,23a11,11,0,0,1-15.61,0,10.68,10.68,0,0,1-3.14-7.71,10.79,10.79,0,0,1,3.14-7.81,11,11,0,0,1,15.61,0,10.79,10.79,0,0,1,3.14,7.81A10.68,10.68,0,0,1,120.23,62.05Z"/><path d="M170.87,53.42a1.35,1.35,0,0,1,0-1.76l12.5-14.57a1.35,1.35,0,0,0-1-2.22H172.1a1.35,1.35,0,0,0-1,.5l-6.61,8.22a1.35,1.35,0,0,1-2.11,0l-6.44-8.2a1.35,1.35,0,0,0-1.06-.51H144.56a1.35,1.35,0,0,0-1,2.21l12.28,14.58a1.35,1.35,0,0,1,0,1.75L140,71.48a1.35,1.35,0,0,0,1,2.23h10.4a1.35,1.35,0,0,0,1-.48l9.86-11.81a1.35,1.35,0,0,1,2.07,0l9.69,11.8a1.35,1.35,0,0,0,1,.49h10.4a1.35,1.35,0,0,0,1-2.23Z"/><path d="M234.54,34.87h-9.31a1.35,1.35,0,0,0-1.21.76l-9.25,19a1.35,1.35,0,0,1-2.39.05L202,35.57a1.35,1.35,0,0,0-1.18-.7h-9.64a1.35,1.35,0,0,0-1.18,2l17,30.37a1.35,1.35,0,0,1,0,1.29l-12.86,24a1.35,1.35,0,0,0,1.19,2h9.32a1.35,1.35,0,0,0,1.19-.72l29.9-57A1.35,1.35,0,0,0,234.54,34.87Z"/><path d="M281.35,34.87H273.1a1.35,1.35,0,0,0-1.35,1.35,1.34,1.34,0,0,1-2.25,1,14,14,0,0,0-9.95-3.59q-8.79,0-14.08,6.06a21.4,21.4,0,0,0-5.29,14.58A21.05,21.05,0,0,0,245.65,69a18.28,18.28,0,0,0,14.17,6,13.38,13.38,0,0,0,9.66-3.69,1.34,1.34,0,0,1,2.27,1v2.09q0,1.08-.09,2a17.66,17.66,0,0,1-.58,2.74,7.43,7.43,0,0,1-4.31,5.2,10,10,0,0,1-4.62,1,9.81,9.81,0,0,1-6.1-1.84,7.86,7.86,0,0,1-2.83-4.22,1.33,1.33,0,0,0-1.28-.94h-9.18a1.36,1.36,0,0,0-1.32,1.64,16.92,16.92,0,0,0,6.49,10.29,22.69,22.69,0,0,0,14.13,4.4q10.23,0,16.24-6.82a16.54,16.54,0,0,0,3.09-5.47,21.18,21.18,0,0,0,1.17-4.84q.13-1.79.13-5.2V36.21A1.35,1.35,0,0,0,281.35,34.87ZM270,62.1a10.94,10.94,0,0,1-15.43,0,10.91,10.91,0,0,1-3.05-7.85,10.76,10.76,0,0,1,3.05-7.81,11,11,0,0,1,15.43,0,10.77,10.77,0,0,1,3,7.81A10.92,10.92,0,0,1,270,62.1Z"/><path d="M311.68,33.61q-9.06,0-14.62,5.47-5.92,5.92-5.92,15.25t6.1,15.16Q303,75,312.12,75a23.76,23.76,0,0,0,8.43-1.39,15.27,15.27,0,0,0,5.83-3.68A30.21,30.21,0,0,0,329.57,66q.48-.74.88-1.48a1.35,1.35,0,0,0-1-2l-7.39-1.19a1.36,1.36,0,0,0-1.35.56,9.73,9.73,0,0,1-8.62,4.41,9.07,9.07,0,0,1-7.81-3.68,10.17,10.17,0,0,1-1.81-5.07,1.36,1.36,0,0,1,1.35-1.48H331.5v-.9q0-9.69-4.67-15.25Q321.54,33.61,311.68,33.61Zm7.78,15.52H304.53a1.36,1.36,0,0,1-1.27-1.82,8.46,8.46,0,0,1,2.81-3.92,9.33,9.33,0,0,1,5.88-2.06,9.59,9.59,0,0,1,6,2,8.25,8.25,0,0,1,2.82,4A1.36,1.36,0,0,1,319.46,49.13Z"/><path d="M374.38,38.37q-3.86-4.75-11.48-4.75a13.84,13.84,0,0,0-9.78,3.71,1.34,1.34,0,0,1-2.24-1v-.11a1.35,1.35,0,0,0-1.35-1.35h-8.25a1.35,1.35,0,0,0-1.35,1.35V72.37a1.35,1.35,0,0,0,1.35,1.35h8.25a1.35,1.35,0,0,0,1.35-1.35V53.89a14.06,14.06,0,0,1,1.71-7.54,7.52,7.52,0,0,1,6.73-3.41,6.74,6.74,0,0,1,5.11,2q2.06,2.15,2.06,7.63V72.37a1.35,1.35,0,0,0,1.35,1.35h8.25a1.35,1.35,0,0,0,1.35-1.35V49.31Q377.43,42.14,374.38,38.37Z"/><path d="M66.4,0A25.22,25.22,0,0,0,50.77,5.4h0a25.48,25.48,0,0,0-4.86,5l0,0q-.38.53-.74,1.08l-.1.15q-.32.5-.61,1l-.11.2q-.29.51-.56,1l-.09.17A25.15,25.15,0,0,0,42.15,18l-.1.34c-.09.32-.18.64-.26,1,0,.15-.07.3-.11.46s-.13.59-.18.89-.06.33-.09.5-.09.59-.13.88,0,.34-.06.51-.06.64-.08,1c0,.15,0,.3,0,.44,0,.47,0,.94,0,1.42a25.28,25.28,0,0,0,9.22,19.55q.47.39,1,.75a25.28,25.28,0,0,0,6.45,3.5q.58.21,1.18.4,1.19.37,2.43.62a25.45,25.45,0,0,0,5.11.51c.67,0,1.34,0,2-.09l.33,0q1-.09,1.88-.24l.31-.06c.64-.12,1.28-.25,1.91-.41h0c.66-.17,1.3-.37,1.94-.6l.1,0c.63-.22,1.24-.47,1.85-.74l.12-.05A25.34,25.34,0,0,0,66.4,0Z"/><path d="M33.43,84.7q.08-.44.14-.89c0-.13,0-.26,0-.39,0-.42.06-.83.06-1.26a14,14,0,0,0-3.21-8.94q-.43-.52-.91-1a14,14,0,0,0-9.93-4.12c-.43,0-.86,0-1.28.06l-.33,0c-.37,0-.74.1-1.1.17l-.15,0c-.4.08-.79.19-1.18.3l-.31.1q-.48.16-.94.34l-.23.09c-.36.16-.71.33-1.06.51l-.29.16q-.4.23-.79.48l-.27.18q-.47.32-.91.68l-.26.22q-.33.28-.64.59l-.28.27c-.26.27-.51.54-.75.83l-.21.26q-.27.34-.52.69l-.24.35c-.2.31-.4.63-.58,1A14,14,0,1,0,32.77,87.09l.12-.33c.08-.22.15-.45.22-.67s.17-.62.24-.93C33.38,85,33.4,84.85,33.43,84.7Z"/><path d="M39.06,25.34a27.29,27.29,0,0,1,9.86-21L43.07,1a4,4,0,0,0-4,0L2,22.35a4,4,0,0,0-2,3.46V68.9a4,4,0,0,0,2,3.46l3.57,2.06a16,16,0,1,1,27.77,16l5.71,3.3a4,4,0,0,0,4,0l37-21.64a4,4,0,0,0,2-3.44l0-20.94a27.32,27.32,0,0,1-43-22.38Z"/></g></g></svg>