<svg xmlns="http://www.w3.org/2000/svg" viewBox="0 0 93.74 100.21"><defs><style>.cls-1{fill:#fff;}</style></defs><title>logo_image</title><g id="Слой_2" data-name="Слой 2"><g id="Слой_1-2" data-name="Слой 1"><path d="M0,27.82V70.9a4,4,0,0,0,2,3.46L39.05,95.75a4,4,0,0,0,4,0l37-21.64a4,4,0,0,0,2-3.44l.08-42.83a4,4,0,0,0-2-3.47L43.07,3a4,4,0,0,0-4,0L2,24.35A4,4,0,0,0,0,27.82Z"/><path class="cls-1" d="M66.4,53.68A26.34,26.34,0,1,1,92.74,27.34,26.37,26.37,0,0,1,66.4,53.68Z"/><path d="M66.4,2A25.34,25.34,0,1,1,41.06,27.34,25.34,25.34,0,0,1,66.4,2m0-2A27.34,27.34,0,1,0,93.74,27.34,27.37,27.37,0,0,0,66.4,0Z"/><path class="cls-1" d="M19.62,99.21a15,15,0,1,1,15-15A15.07,15.07,0,0,1,19.62,99.21Z"/><path d="M19.62,70.11a14,14,0,1,1-14,14,14,14,0,0,1,14-14m0-2a16,16,0,1,0,16,16,16.07,16.07,0,0,0-16-16Z"/></g></g></svg>