<svg xmlns="http://www.w3.org/2000/svg" viewBox="0 0 391.08 131.1">
    <title>yoitz</title>
    <g id="Слой_2" data-name="Слой 2">
        <g id="Слой_1-2" data-name="Слой 1">
            <path d="M86.72,1.18,59.82,44.36a2.5,2.5,0,0,1-4.24,0L28.68,1.18A2.5,2.5,0,0,0,26.56,0H2.5A2.5,2.5,0,0,0,.38,3.82l42,67.39a2.5,2.5,0,0,1,.38,1.32V128.6a2.5,2.5,0,0,0,2.5,2.5H70.18a2.5,2.5,0,0,0,2.5-2.5V72.53a2.5,2.5,0,0,1,.38-1.32L115,3.82A2.5,2.5,0,0,0,112.9,0H88.84A2.5,2.5,0,0,0,86.72,1.18Z" />
            <path d="M388.4,45.57a2.5,2.5,0,0,0-2.06-3.91h-84a2.5,2.5,0,0,0-2.5,2.5V69.11a2.5,2.5,0,0,0,2.5,2.5h33.53a2.5,2.5,0,0,1,2.06,3.91l-17.12,25h0l-21,29.95h88.73a2.5,2.5,0,0,0,2.5-2.5V103a2.5,2.5,0,0,0-2.5-2.5H355.51a2.5,2.5,0,0,1-2.06-3.91Z" />
            <path d="M290.73,41.66H278.35a2.5,2.5,0,0,1-2.5-2.5V16.36a2.5,2.5,0,0,0-2.5-2.5H248.4a2.5,2.5,0,0,0-2.5,2.5v22.8a2.5,2.5,0,0,1-2.5,2.5h-7.94a2.5,2.5,0,0,0-2.5,2.5V69.11a2.5,2.5,0,0,0,2.5,2.5h7.94a2.5,2.5,0,0,1,2.5,2.5v52.74a2.5,2.5,0,0,0,2.5,2.5h24.95a2.5,2.5,0,0,0,2.5-2.5V74.11a2.5,2.5,0,0,1,2.5-2.5h12.38a2.5,2.5,0,0,0,2.5-2.5V44.16A2.5,2.5,0,0,0,290.73,41.66Z" />
            <rect x="188.66" y="39.87" width="29.95" height="91.23" rx="2.5" ry="2.5" />
            <circle cx="203.63" cy="14.97" r="14.97" />
            <path d="M131.3,40.76c-27.18,0-49.22,20-49.22,44.72s22,44.72,49.22,44.72,49.22-20,49.22-44.72S158.49,40.76,131.3,40.76Zm0,64.89a19.27,19.27,0,1,1,19.27-19.27A19.27,19.27,0,0,1,131.3,105.65Z" />
        </g>
    </g>
</svg>